<mxfile host="app.diagrams.net" modified="2023-03-16T07:54:51.121Z" agent="5.0 (Windows NT 10.0; Win64; x64) AppleWebKit/537.36 (KHTML, like Gecko) Chrome/90.0.4430.72 Safari/537.36" etag="vsSWuzcqwqO9IHZ8aIpH" version="21.0.6" type="github">
  <diagram name="Page-1" id="74e2e168-ea6b-b213-b513-2b3c1d86103e">
    <mxGraphModel dx="1434" dy="764" grid="1" gridSize="10" guides="1" tooltips="1" connect="1" arrows="1" fold="1" page="1" pageScale="1" pageWidth="1100" pageHeight="850" background="none" math="0" shadow="0">
      <root>
        <mxCell id="0" />
        <mxCell id="1" parent="0" />
        <mxCell id="77e6c97f196da883-1" value="KPI" style="swimlane;html=1;childLayout=stackLayout;startSize=20;rounded=0;shadow=0;labelBackgroundColor=none;strokeWidth=1;fontFamily=Verdana;fontSize=8;align=center;movable=1;resizable=1;rotatable=1;deletable=1;editable=1;locked=0;connectable=1;" parent="1" vertex="1">
          <mxGeometry x="70" y="40" width="960" height="750" as="geometry" />
        </mxCell>
        <mxCell id="77e6c97f196da883-26" style="edgeStyle=orthogonalEdgeStyle;rounded=1;html=1;labelBackgroundColor=none;startArrow=none;startFill=0;startSize=5;endArrow=classicThin;endFill=1;endSize=5;jettySize=auto;orthogonalLoop=1;strokeWidth=1;fontFamily=Verdana;fontSize=8" parent="77e6c97f196da883-1" target="77e6c97f196da883-11" edge="1">
          <mxGeometry relative="1" as="geometry">
            <mxPoint x="120" y="115" as="sourcePoint" />
          </mxGeometry>
        </mxCell>
        <mxCell id="77e6c97f196da883-27" style="edgeStyle=orthogonalEdgeStyle;rounded=1;html=1;labelBackgroundColor=none;startArrow=none;startFill=0;startSize=5;endArrow=classicThin;endFill=1;endSize=5;jettySize=auto;orthogonalLoop=1;strokeWidth=1;fontFamily=Verdana;fontSize=8" parent="77e6c97f196da883-1" source="77e6c97f196da883-11" edge="1">
          <mxGeometry relative="1" as="geometry">
            <Array as="points">
              <mxPoint x="240" y="155" />
              <mxPoint x="70" y="155" />
            </Array>
            <mxPoint x="70" y="175" as="targetPoint" />
          </mxGeometry>
        </mxCell>
        <mxCell id="77e6c97f196da883-28" style="edgeStyle=orthogonalEdgeStyle;rounded=1;html=1;labelBackgroundColor=none;startArrow=none;startFill=0;startSize=5;endArrow=classicThin;endFill=1;endSize=5;jettySize=auto;orthogonalLoop=1;strokeWidth=1;fontFamily=Verdana;fontSize=8" parent="77e6c97f196da883-1" target="77e6c97f196da883-12" edge="1">
          <mxGeometry relative="1" as="geometry">
            <mxPoint x="120" y="205" as="sourcePoint" />
          </mxGeometry>
        </mxCell>
        <mxCell id="QjHmccWODFoRW-XNGnVH-48" style="edgeStyle=elbowEdgeStyle;rounded=1;orthogonalLoop=1;jettySize=auto;html=1;elbow=vertical;" edge="1" parent="77e6c97f196da883-1" target="QjHmccWODFoRW-XNGnVH-47">
          <mxGeometry relative="1" as="geometry">
            <mxPoint x="70" y="325" as="sourcePoint" />
          </mxGeometry>
        </mxCell>
        <mxCell id="QjHmccWODFoRW-XNGnVH-50" value="" style="edgeStyle=orthogonalEdgeStyle;rounded=1;orthogonalLoop=1;jettySize=auto;html=1;" edge="1" parent="77e6c97f196da883-1" target="QjHmccWODFoRW-XNGnVH-49">
          <mxGeometry relative="1" as="geometry">
            <mxPoint x="390" y="415" as="sourcePoint" />
            <Array as="points">
              <mxPoint x="390" y="450" />
            </Array>
          </mxGeometry>
        </mxCell>
        <mxCell id="QjHmccWODFoRW-XNGnVH-3" value="KPI+项目" style="swimlane;html=1;childLayout=stackLayout;startSize=20;rounded=0;shadow=0;labelBackgroundColor=none;strokeWidth=1;fontFamily=Verdana;fontSize=8;align=center;" vertex="1" parent="1">
          <mxGeometry x="50" y="880" width="960" height="750" as="geometry" />
        </mxCell>
        <mxCell id="QjHmccWODFoRW-XNGnVH-4" value="员工" style="swimlane;html=1;startSize=20;" vertex="1" parent="QjHmccWODFoRW-XNGnVH-3">
          <mxGeometry y="20" width="160" height="730" as="geometry" />
        </mxCell>
        <mxCell id="QjHmccWODFoRW-XNGnVH-5" value="新建计划" style="rounded=1;whiteSpace=wrap;html=1;shadow=0;labelBackgroundColor=none;strokeWidth=1;fontFamily=Verdana;fontSize=8;align=center;" vertex="1" parent="QjHmccWODFoRW-XNGnVH-4">
          <mxGeometry x="20" y="65" width="100" height="60" as="geometry" />
        </mxCell>
        <mxCell id="QjHmccWODFoRW-XNGnVH-6" value="新建总结" style="rounded=1;whiteSpace=wrap;html=1;shadow=0;labelBackgroundColor=none;strokeWidth=1;fontFamily=Verdana;fontSize=8;align=center;" vertex="1" parent="QjHmccWODFoRW-XNGnVH-4">
          <mxGeometry x="20" y="155" width="100" height="60" as="geometry" />
        </mxCell>
        <mxCell id="QjHmccWODFoRW-XNGnVH-7" value="" style="rounded=1;whiteSpace=wrap;html=1;shadow=0;labelBackgroundColor=none;strokeWidth=1;fontFamily=Verdana;fontSize=8;align=center;" vertex="1" parent="QjHmccWODFoRW-XNGnVH-4">
          <mxGeometry x="30" y="560" width="100" height="60" as="geometry" />
        </mxCell>
        <mxCell id="QjHmccWODFoRW-XNGnVH-8" value="KPI得分" style="rounded=1;whiteSpace=wrap;html=1;shadow=0;labelBackgroundColor=none;strokeWidth=1;fontFamily=Verdana;fontSize=8;align=center;" vertex="1" parent="QjHmccWODFoRW-XNGnVH-4">
          <mxGeometry x="20" y="250" width="100" height="60" as="geometry" />
        </mxCell>
        <mxCell id="QjHmccWODFoRW-XNGnVH-9" style="edgeStyle=orthogonalEdgeStyle;rounded=1;html=1;labelBackgroundColor=none;startArrow=none;startFill=0;startSize=5;endArrow=classicThin;endFill=1;endSize=5;jettySize=auto;orthogonalLoop=1;strokeWidth=1;fontFamily=Verdana;fontSize=8" edge="1" parent="QjHmccWODFoRW-XNGnVH-3" source="QjHmccWODFoRW-XNGnVH-5" target="QjHmccWODFoRW-XNGnVH-22">
          <mxGeometry relative="1" as="geometry" />
        </mxCell>
        <mxCell id="QjHmccWODFoRW-XNGnVH-10" style="edgeStyle=orthogonalEdgeStyle;rounded=1;html=1;labelBackgroundColor=none;startArrow=none;startFill=0;startSize=5;endArrow=classicThin;endFill=1;endSize=5;jettySize=auto;orthogonalLoop=1;strokeWidth=1;fontFamily=Verdana;fontSize=8" edge="1" parent="QjHmccWODFoRW-XNGnVH-3" source="QjHmccWODFoRW-XNGnVH-22" target="QjHmccWODFoRW-XNGnVH-6">
          <mxGeometry relative="1" as="geometry">
            <Array as="points">
              <mxPoint x="240" y="155" />
              <mxPoint x="70" y="155" />
            </Array>
          </mxGeometry>
        </mxCell>
        <mxCell id="QjHmccWODFoRW-XNGnVH-11" style="edgeStyle=orthogonalEdgeStyle;rounded=1;html=1;labelBackgroundColor=none;startArrow=none;startFill=0;startSize=5;endArrow=classicThin;endFill=1;endSize=5;jettySize=auto;orthogonalLoop=1;strokeWidth=1;fontFamily=Verdana;fontSize=8" edge="1" parent="QjHmccWODFoRW-XNGnVH-3" source="QjHmccWODFoRW-XNGnVH-6" target="QjHmccWODFoRW-XNGnVH-23">
          <mxGeometry relative="1" as="geometry" />
        </mxCell>
        <mxCell id="QjHmccWODFoRW-XNGnVH-12" style="edgeStyle=orthogonalEdgeStyle;rounded=1;html=1;labelBackgroundColor=none;startArrow=none;startFill=0;startSize=5;endArrow=classicThin;endFill=1;endSize=5;jettySize=auto;orthogonalLoop=1;strokeWidth=1;fontFamily=Verdana;fontSize=8" edge="1" parent="QjHmccWODFoRW-XNGnVH-3" source="QjHmccWODFoRW-XNGnVH-26" target="QjHmccWODFoRW-XNGnVH-29">
          <mxGeometry relative="1" as="geometry" />
        </mxCell>
        <mxCell id="QjHmccWODFoRW-XNGnVH-13" style="edgeStyle=orthogonalEdgeStyle;rounded=1;html=1;labelBackgroundColor=none;startArrow=none;startFill=0;startSize=5;endArrow=classicThin;endFill=1;endSize=5;jettySize=auto;orthogonalLoop=1;strokeWidth=1;fontFamily=Verdana;fontSize=8" edge="1" parent="QjHmccWODFoRW-XNGnVH-3" source="QjHmccWODFoRW-XNGnVH-33" target="QjHmccWODFoRW-XNGnVH-41">
          <mxGeometry relative="1" as="geometry" />
        </mxCell>
        <mxCell id="QjHmccWODFoRW-XNGnVH-14" style="edgeStyle=orthogonalEdgeStyle;rounded=1;html=1;labelBackgroundColor=none;startArrow=none;startFill=0;startSize=5;endArrow=classicThin;endFill=1;endSize=5;jettySize=auto;orthogonalLoop=1;strokeWidth=1;fontFamily=Verdana;fontSize=8" edge="1" parent="QjHmccWODFoRW-XNGnVH-3" source="QjHmccWODFoRW-XNGnVH-41" target="QjHmccWODFoRW-XNGnVH-45">
          <mxGeometry relative="1" as="geometry" />
        </mxCell>
        <mxCell id="QjHmccWODFoRW-XNGnVH-15" style="edgeStyle=orthogonalEdgeStyle;rounded=1;html=1;labelBackgroundColor=none;startArrow=none;startFill=0;startSize=5;endArrow=classicThin;endFill=1;endSize=5;jettySize=auto;orthogonalLoop=1;strokeWidth=1;fontFamily=Verdana;fontSize=8" edge="1" parent="QjHmccWODFoRW-XNGnVH-3" source="QjHmccWODFoRW-XNGnVH-31" target="QjHmccWODFoRW-XNGnVH-38">
          <mxGeometry relative="1" as="geometry" />
        </mxCell>
        <mxCell id="QjHmccWODFoRW-XNGnVH-16" style="edgeStyle=orthogonalEdgeStyle;rounded=1;html=1;labelBackgroundColor=none;startArrow=none;startFill=0;startSize=5;endArrow=classicThin;endFill=1;endSize=5;jettySize=auto;orthogonalLoop=1;strokeWidth=1;fontFamily=Verdana;fontSize=8" edge="1" parent="QjHmccWODFoRW-XNGnVH-3" source="QjHmccWODFoRW-XNGnVH-40" target="QjHmccWODFoRW-XNGnVH-27">
          <mxGeometry relative="1" as="geometry">
            <Array as="points">
              <mxPoint x="660" y="610" />
              <mxPoint x="660" y="550" />
              <mxPoint x="400" y="550" />
            </Array>
          </mxGeometry>
        </mxCell>
        <mxCell id="QjHmccWODFoRW-XNGnVH-17" style="edgeStyle=orthogonalEdgeStyle;rounded=1;html=1;labelBackgroundColor=none;startArrow=none;startFill=0;startSize=5;endArrow=classicThin;endFill=1;endSize=5;jettySize=auto;orthogonalLoop=1;strokeColor=#000000;strokeWidth=1;fontFamily=Verdana;fontSize=8;fontColor=#000000;" edge="1" parent="QjHmccWODFoRW-XNGnVH-3" source="QjHmccWODFoRW-XNGnVH-40" target="QjHmccWODFoRW-XNGnVH-32">
          <mxGeometry relative="1" as="geometry" />
        </mxCell>
        <mxCell id="QjHmccWODFoRW-XNGnVH-18" style="edgeStyle=orthogonalEdgeStyle;rounded=1;html=1;labelBackgroundColor=none;startArrow=none;startFill=0;startSize=5;endArrow=classicThin;endFill=1;endSize=5;jettySize=auto;orthogonalLoop=1;strokeWidth=1;fontFamily=Verdana;fontSize=8" edge="1" parent="QjHmccWODFoRW-XNGnVH-3" source="QjHmccWODFoRW-XNGnVH-40" target="QjHmccWODFoRW-XNGnVH-7">
          <mxGeometry relative="1" as="geometry">
            <Array as="points">
              <mxPoint x="660" y="610" />
              <mxPoint x="660" y="550" />
              <mxPoint x="80" y="550" />
            </Array>
          </mxGeometry>
        </mxCell>
        <mxCell id="QjHmccWODFoRW-XNGnVH-19" style="edgeStyle=orthogonalEdgeStyle;rounded=1;html=1;labelBackgroundColor=none;startArrow=none;startFill=0;startSize=5;endArrow=classicThin;endFill=1;endSize=5;jettySize=auto;orthogonalLoop=1;strokeWidth=1;fontFamily=Verdana;fontSize=8" edge="1" parent="QjHmccWODFoRW-XNGnVH-3" source="QjHmccWODFoRW-XNGnVH-7" target="QjHmccWODFoRW-XNGnVH-32">
          <mxGeometry relative="1" as="geometry">
            <Array as="points">
              <mxPoint x="80" y="650" />
              <mxPoint x="490" y="650" />
              <mxPoint x="490" y="610" />
            </Array>
          </mxGeometry>
        </mxCell>
        <mxCell id="QjHmccWODFoRW-XNGnVH-20" style="edgeStyle=orthogonalEdgeStyle;rounded=1;html=1;labelBackgroundColor=none;startArrow=none;startFill=0;startSize=5;endArrow=classicThin;endFill=1;endSize=5;jettySize=auto;orthogonalLoop=1;strokeWidth=1;fontFamily=Verdana;fontSize=8" edge="1" parent="QjHmccWODFoRW-XNGnVH-3" source="QjHmccWODFoRW-XNGnVH-27" target="QjHmccWODFoRW-XNGnVH-32">
          <mxGeometry relative="1" as="geometry" />
        </mxCell>
        <mxCell id="QjHmccWODFoRW-XNGnVH-21" value="员工上级" style="swimlane;html=1;startSize=20;" vertex="1" parent="QjHmccWODFoRW-XNGnVH-3">
          <mxGeometry x="160" y="20" width="160" height="730" as="geometry" />
        </mxCell>
        <mxCell id="QjHmccWODFoRW-XNGnVH-22" value="审批" style="rounded=1;whiteSpace=wrap;html=1;shadow=0;labelBackgroundColor=none;strokeWidth=1;fontFamily=Verdana;fontSize=8;align=center;" vertex="1" parent="QjHmccWODFoRW-XNGnVH-21">
          <mxGeometry x="30" y="65" width="100" height="60" as="geometry" />
        </mxCell>
        <mxCell id="QjHmccWODFoRW-XNGnVH-23" value="评分" style="rounded=1;whiteSpace=wrap;html=1;shadow=0;labelBackgroundColor=none;strokeWidth=1;fontFamily=Verdana;fontSize=8;align=center;" vertex="1" parent="QjHmccWODFoRW-XNGnVH-21">
          <mxGeometry x="30" y="155" width="100" height="60" as="geometry" />
        </mxCell>
        <mxCell id="QjHmccWODFoRW-XNGnVH-24" style="edgeStyle=orthogonalEdgeStyle;rounded=1;html=1;labelBackgroundColor=none;startArrow=none;startFill=0;startSize=5;endArrow=classicThin;endFill=1;endSize=5;jettySize=auto;orthogonalLoop=1;strokeWidth=1;fontFamily=Verdana;fontSize=8" edge="1" parent="QjHmccWODFoRW-XNGnVH-21">
          <mxGeometry relative="1" as="geometry">
            <Array as="points">
              <mxPoint x="80" y="225" />
              <mxPoint x="-90" y="225" />
            </Array>
            <mxPoint x="80" y="215" as="sourcePoint" />
            <mxPoint x="-90" y="245" as="targetPoint" />
          </mxGeometry>
        </mxCell>
        <mxCell id="QjHmccWODFoRW-XNGnVH-25" value="Lane 3" style="swimlane;html=1;startSize=20;" vertex="1" parent="QjHmccWODFoRW-XNGnVH-3">
          <mxGeometry x="320" y="20" width="160" height="730" as="geometry" />
        </mxCell>
        <mxCell id="QjHmccWODFoRW-XNGnVH-26" value="" style="rhombus;whiteSpace=wrap;html=1;rounded=0;shadow=0;labelBackgroundColor=none;strokeWidth=1;fontFamily=Verdana;fontSize=8;align=center;" vertex="1" parent="QjHmccWODFoRW-XNGnVH-25">
          <mxGeometry x="40" y="240" width="80" height="60" as="geometry" />
        </mxCell>
        <mxCell id="QjHmccWODFoRW-XNGnVH-27" value="" style="rounded=1;whiteSpace=wrap;html=1;shadow=0;labelBackgroundColor=none;strokeWidth=1;fontFamily=Verdana;fontSize=8;align=center;" vertex="1" parent="QjHmccWODFoRW-XNGnVH-25">
          <mxGeometry x="30" y="560" width="100" height="60" as="geometry" />
        </mxCell>
        <mxCell id="QjHmccWODFoRW-XNGnVH-28" value="Lane 4" style="swimlane;html=1;startSize=20;" vertex="1" parent="QjHmccWODFoRW-XNGnVH-3">
          <mxGeometry x="480" y="20" width="160" height="730" as="geometry" />
        </mxCell>
        <mxCell id="QjHmccWODFoRW-XNGnVH-29" value="" style="rounded=1;whiteSpace=wrap;html=1;shadow=0;labelBackgroundColor=none;strokeWidth=1;fontFamily=Verdana;fontSize=8;align=center;" vertex="1" parent="QjHmccWODFoRW-XNGnVH-28">
          <mxGeometry x="30" y="240" width="100" height="60" as="geometry" />
        </mxCell>
        <mxCell id="QjHmccWODFoRW-XNGnVH-30" value="" style="rhombus;whiteSpace=wrap;html=1;rounded=0;shadow=0;labelBackgroundColor=none;strokeWidth=1;fontFamily=Verdana;fontSize=8;align=center;" vertex="1" parent="QjHmccWODFoRW-XNGnVH-28">
          <mxGeometry x="40" y="320" width="80" height="60" as="geometry" />
        </mxCell>
        <mxCell id="QjHmccWODFoRW-XNGnVH-31" value="" style="rounded=1;whiteSpace=wrap;html=1;shadow=0;labelBackgroundColor=none;strokeWidth=1;fontFamily=Verdana;fontSize=8;align=center;" vertex="1" parent="QjHmccWODFoRW-XNGnVH-28">
          <mxGeometry x="30" y="400" width="100" height="60" as="geometry" />
        </mxCell>
        <mxCell id="QjHmccWODFoRW-XNGnVH-32" value="" style="rounded=1;whiteSpace=wrap;html=1;shadow=0;labelBackgroundColor=none;strokeWidth=1;fontFamily=Verdana;fontSize=8;align=center;" vertex="1" parent="QjHmccWODFoRW-XNGnVH-28">
          <mxGeometry x="30" y="560" width="100" height="60" as="geometry" />
        </mxCell>
        <mxCell id="QjHmccWODFoRW-XNGnVH-33" value="" style="rhombus;whiteSpace=wrap;html=1;rounded=0;shadow=0;labelBackgroundColor=none;strokeWidth=1;fontFamily=Verdana;fontSize=8;align=center;" vertex="1" parent="QjHmccWODFoRW-XNGnVH-28">
          <mxGeometry x="40" y="640" width="80" height="60" as="geometry" />
        </mxCell>
        <mxCell id="QjHmccWODFoRW-XNGnVH-34" style="edgeStyle=orthogonalEdgeStyle;rounded=1;html=1;labelBackgroundColor=none;startArrow=none;startFill=0;startSize=5;endArrow=classicThin;endFill=1;endSize=5;jettySize=auto;orthogonalLoop=1;strokeColor=#000000;strokeWidth=1;fontFamily=Verdana;fontSize=8;fontColor=#000000;" edge="1" parent="QjHmccWODFoRW-XNGnVH-28" source="QjHmccWODFoRW-XNGnVH-29" target="QjHmccWODFoRW-XNGnVH-30">
          <mxGeometry relative="1" as="geometry" />
        </mxCell>
        <mxCell id="QjHmccWODFoRW-XNGnVH-35" style="edgeStyle=orthogonalEdgeStyle;rounded=1;html=1;labelBackgroundColor=none;startArrow=none;startFill=0;startSize=5;endArrow=classicThin;endFill=1;endSize=5;jettySize=auto;orthogonalLoop=1;strokeWidth=1;fontFamily=Verdana;fontSize=8" edge="1" parent="QjHmccWODFoRW-XNGnVH-28" source="QjHmccWODFoRW-XNGnVH-30" target="QjHmccWODFoRW-XNGnVH-31">
          <mxGeometry relative="1" as="geometry" />
        </mxCell>
        <mxCell id="QjHmccWODFoRW-XNGnVH-36" style="edgeStyle=orthogonalEdgeStyle;rounded=1;html=1;labelBackgroundColor=none;startArrow=none;startFill=0;startSize=5;endArrow=classicThin;endFill=1;endSize=5;jettySize=auto;orthogonalLoop=1;strokeWidth=1;fontFamily=Verdana;fontSize=8" edge="1" parent="QjHmccWODFoRW-XNGnVH-28" source="QjHmccWODFoRW-XNGnVH-32" target="QjHmccWODFoRW-XNGnVH-33">
          <mxGeometry relative="1" as="geometry" />
        </mxCell>
        <mxCell id="QjHmccWODFoRW-XNGnVH-37" value="Lane 5" style="swimlane;html=1;startSize=20;" vertex="1" parent="QjHmccWODFoRW-XNGnVH-3">
          <mxGeometry x="640" y="20" width="160" height="730" as="geometry" />
        </mxCell>
        <mxCell id="QjHmccWODFoRW-XNGnVH-38" value="" style="rounded=1;whiteSpace=wrap;html=1;shadow=0;labelBackgroundColor=none;strokeWidth=1;fontFamily=Verdana;fontSize=8;align=center;" vertex="1" parent="QjHmccWODFoRW-XNGnVH-37">
          <mxGeometry x="30" y="400" width="100" height="60" as="geometry" />
        </mxCell>
        <mxCell id="QjHmccWODFoRW-XNGnVH-39" value="" style="rounded=1;whiteSpace=wrap;html=1;shadow=0;labelBackgroundColor=none;strokeWidth=1;fontFamily=Verdana;fontSize=8;align=center;" vertex="1" parent="QjHmccWODFoRW-XNGnVH-37">
          <mxGeometry x="30" y="480" width="100" height="60" as="geometry" />
        </mxCell>
        <mxCell id="QjHmccWODFoRW-XNGnVH-40" value="" style="rounded=1;whiteSpace=wrap;html=1;shadow=0;labelBackgroundColor=none;strokeWidth=1;fontFamily=Verdana;fontSize=8;align=center;" vertex="1" parent="QjHmccWODFoRW-XNGnVH-37">
          <mxGeometry x="30" y="560" width="100" height="60" as="geometry" />
        </mxCell>
        <mxCell id="QjHmccWODFoRW-XNGnVH-41" value="" style="rounded=1;whiteSpace=wrap;html=1;shadow=0;labelBackgroundColor=none;strokeWidth=1;fontFamily=Verdana;fontSize=8;align=center;" vertex="1" parent="QjHmccWODFoRW-XNGnVH-37">
          <mxGeometry x="30" y="640" width="100" height="60" as="geometry" />
        </mxCell>
        <mxCell id="QjHmccWODFoRW-XNGnVH-42" style="edgeStyle=orthogonalEdgeStyle;rounded=1;html=1;labelBackgroundColor=none;startArrow=none;startFill=0;startSize=5;endArrow=classicThin;endFill=1;endSize=5;jettySize=auto;orthogonalLoop=1;strokeWidth=1;fontFamily=Verdana;fontSize=8" edge="1" parent="QjHmccWODFoRW-XNGnVH-37" source="QjHmccWODFoRW-XNGnVH-38" target="QjHmccWODFoRW-XNGnVH-39">
          <mxGeometry relative="1" as="geometry" />
        </mxCell>
        <mxCell id="QjHmccWODFoRW-XNGnVH-43" style="edgeStyle=orthogonalEdgeStyle;rounded=1;html=1;labelBackgroundColor=none;startArrow=none;startFill=0;startSize=5;endArrow=classicThin;endFill=1;endSize=5;jettySize=auto;orthogonalLoop=1;strokeWidth=1;fontFamily=Verdana;fontSize=8" edge="1" parent="QjHmccWODFoRW-XNGnVH-37" source="QjHmccWODFoRW-XNGnVH-39" target="QjHmccWODFoRW-XNGnVH-40">
          <mxGeometry relative="1" as="geometry" />
        </mxCell>
        <mxCell id="QjHmccWODFoRW-XNGnVH-44" value="Lane 6" style="swimlane;html=1;startSize=20;" vertex="1" parent="QjHmccWODFoRW-XNGnVH-3">
          <mxGeometry x="800" y="20" width="160" height="730" as="geometry" />
        </mxCell>
        <mxCell id="QjHmccWODFoRW-XNGnVH-45" value="" style="rounded=1;whiteSpace=wrap;html=1;shadow=0;labelBackgroundColor=none;strokeWidth=1;fontFamily=Verdana;fontSize=8;align=center;" vertex="1" parent="QjHmccWODFoRW-XNGnVH-44">
          <mxGeometry x="30" y="640" width="100" height="60" as="geometry" />
        </mxCell>
        <mxCell id="QjHmccWODFoRW-XNGnVH-46" style="edgeStyle=orthogonalEdgeStyle;rounded=1;html=1;labelBackgroundColor=none;startArrow=none;startFill=0;startSize=5;endArrow=classicThin;endFill=1;endSize=5;jettySize=auto;orthogonalLoop=1;strokeWidth=1;fontFamily=Verdana;fontSize=8" edge="1" parent="QjHmccWODFoRW-XNGnVH-3" source="QjHmccWODFoRW-XNGnVH-23" target="QjHmccWODFoRW-XNGnVH-26">
          <mxGeometry relative="1" as="geometry" />
        </mxCell>
        <mxCell id="QjHmccWODFoRW-XNGnVH-51" value="薪酬系统" style="swimlane;html=1;startSize=20;" vertex="1" parent="1">
          <mxGeometry x="870" y="60" width="160" height="730" as="geometry" />
        </mxCell>
        <mxCell id="QjHmccWODFoRW-XNGnVH-86" value="计算薪资" style="rounded=1;whiteSpace=wrap;html=1;shadow=0;labelBackgroundColor=none;strokeWidth=1;fontFamily=Verdana;fontSize=8;align=center;" vertex="1" parent="QjHmccWODFoRW-XNGnVH-51">
          <mxGeometry x="30" y="650" width="100" height="60" as="geometry" />
        </mxCell>
        <mxCell id="QjHmccWODFoRW-XNGnVH-53" value="SAP" style="swimlane;html=1;startSize=20;" vertex="1" parent="1">
          <mxGeometry x="70" y="60" width="160" height="730" as="geometry">
            <mxRectangle y="20" width="40" height="730" as="alternateBounds" />
          </mxGeometry>
        </mxCell>
        <mxCell id="QjHmccWODFoRW-XNGnVH-79" value="员工" style="shape=cylinder3;whiteSpace=wrap;html=1;boundedLbl=1;backgroundOutline=1;size=15;" vertex="1" parent="QjHmccWODFoRW-XNGnVH-53">
          <mxGeometry x="50" y="40" width="60" height="60" as="geometry" />
        </mxCell>
        <mxCell id="QjHmccWODFoRW-XNGnVH-57" value="员工" style="swimlane;html=1;startSize=20;" vertex="1" parent="1">
          <mxGeometry x="230" y="60" width="160" height="730" as="geometry" />
        </mxCell>
        <mxCell id="QjHmccWODFoRW-XNGnVH-54" value="新建计划" style="rounded=1;whiteSpace=wrap;html=1;shadow=0;labelBackgroundColor=none;strokeWidth=1;fontFamily=Verdana;fontSize=8;align=center;" vertex="1" parent="QjHmccWODFoRW-XNGnVH-57">
          <mxGeometry x="30" y="170" width="100" height="60" as="geometry" />
        </mxCell>
        <mxCell id="QjHmccWODFoRW-XNGnVH-55" value="新建总结" style="rounded=1;whiteSpace=wrap;html=1;shadow=0;labelBackgroundColor=none;strokeWidth=1;fontFamily=Verdana;fontSize=8;align=center;" vertex="1" parent="QjHmccWODFoRW-XNGnVH-57">
          <mxGeometry x="30" y="290" width="100" height="60" as="geometry" />
        </mxCell>
        <mxCell id="QjHmccWODFoRW-XNGnVH-56" value="KPI得分" style="rounded=1;whiteSpace=wrap;html=1;shadow=0;labelBackgroundColor=none;strokeWidth=1;fontFamily=Verdana;fontSize=8;align=center;" vertex="1" parent="QjHmccWODFoRW-XNGnVH-57">
          <mxGeometry x="30" y="430" width="100" height="60" as="geometry" />
        </mxCell>
        <mxCell id="QjHmccWODFoRW-XNGnVH-61" value="员工上级" style="swimlane;html=1;startSize=20;" vertex="1" parent="1">
          <mxGeometry x="390" y="60" width="160" height="730" as="geometry" />
        </mxCell>
        <mxCell id="QjHmccWODFoRW-XNGnVH-59" value="评分" style="rounded=1;whiteSpace=wrap;html=1;shadow=0;labelBackgroundColor=none;strokeWidth=1;fontFamily=Verdana;fontSize=8;align=center;" vertex="1" parent="QjHmccWODFoRW-XNGnVH-61">
          <mxGeometry x="30" y="290" width="100" height="60" as="geometry" />
        </mxCell>
        <mxCell id="QjHmccWODFoRW-XNGnVH-58" value="审批" style="rounded=1;whiteSpace=wrap;html=1;shadow=0;labelBackgroundColor=none;strokeWidth=1;fontFamily=Verdana;fontSize=8;align=center;" vertex="1" parent="QjHmccWODFoRW-XNGnVH-61">
          <mxGeometry x="30" y="170" width="100" height="60" as="geometry" />
        </mxCell>
        <mxCell id="QjHmccWODFoRW-XNGnVH-63" value="部门经理" style="swimlane;html=1;startSize=20;" vertex="1" parent="1">
          <mxGeometry x="550" y="60" width="160" height="730" as="geometry" />
        </mxCell>
        <mxCell id="QjHmccWODFoRW-XNGnVH-62" value="绩效确认" style="rounded=1;whiteSpace=wrap;html=1;shadow=0;labelBackgroundColor=none;strokeWidth=1;fontFamily=Verdana;fontSize=8;align=center;" vertex="1" parent="QjHmccWODFoRW-XNGnVH-63">
          <mxGeometry x="30" y="510" width="100" height="60" as="geometry" />
        </mxCell>
        <mxCell id="QjHmccWODFoRW-XNGnVH-88" value="直接评分" style="rounded=1;whiteSpace=wrap;html=1;shadow=0;labelBackgroundColor=none;strokeWidth=1;fontFamily=Verdana;fontSize=8;align=center;dashed=1;dashPattern=8 8;" vertex="1" parent="QjHmccWODFoRW-XNGnVH-63">
          <mxGeometry x="30" y="290" width="100" height="60" as="geometry" />
        </mxCell>
        <mxCell id="QjHmccWODFoRW-XNGnVH-65" value="HR" style="swimlane;html=1;startSize=20;" vertex="1" parent="1">
          <mxGeometry x="710" y="60" width="160" height="730" as="geometry" />
        </mxCell>
        <mxCell id="QjHmccWODFoRW-XNGnVH-64" value="发起汇总审批" style="rounded=1;whiteSpace=wrap;html=1;shadow=0;labelBackgroundColor=none;strokeWidth=1;fontFamily=Verdana;fontSize=8;align=center;" vertex="1" parent="QjHmccWODFoRW-XNGnVH-65">
          <mxGeometry x="30" y="580" width="100" height="60" as="geometry" />
        </mxCell>
        <mxCell id="QjHmccWODFoRW-XNGnVH-91" style="edgeStyle=orthogonalEdgeStyle;rounded=1;orthogonalLoop=1;jettySize=auto;html=1;dashed=1;" edge="1" parent="QjHmccWODFoRW-XNGnVH-65" source="QjHmccWODFoRW-XNGnVH-89">
          <mxGeometry relative="1" as="geometry">
            <mxPoint x="-400" y="410" as="targetPoint" />
            <Array as="points">
              <mxPoint x="80" y="390" />
              <mxPoint x="-400" y="390" />
            </Array>
          </mxGeometry>
        </mxCell>
        <mxCell id="QjHmccWODFoRW-XNGnVH-89" value="直接评分" style="rounded=1;whiteSpace=wrap;html=1;shadow=0;labelBackgroundColor=none;strokeWidth=1;fontFamily=Verdana;fontSize=8;align=center;dashed=1;dashPattern=8 8;" vertex="1" parent="QjHmccWODFoRW-XNGnVH-65">
          <mxGeometry x="30" y="290" width="100" height="60" as="geometry" />
        </mxCell>
        <mxCell id="QjHmccWODFoRW-XNGnVH-80" style="edgeStyle=orthogonalEdgeStyle;rounded=1;orthogonalLoop=1;jettySize=auto;html=1;entryX=0.5;entryY=0;entryDx=0;entryDy=0;exitX=0.5;exitY=1;exitDx=0;exitDy=0;exitPerimeter=0;" edge="1" parent="1" source="QjHmccWODFoRW-XNGnVH-79" target="QjHmccWODFoRW-XNGnVH-54">
          <mxGeometry relative="1" as="geometry">
            <Array as="points">
              <mxPoint x="150" y="190" />
              <mxPoint x="310" y="190" />
            </Array>
          </mxGeometry>
        </mxCell>
        <mxCell id="QjHmccWODFoRW-XNGnVH-81" style="edgeStyle=orthogonalEdgeStyle;rounded=0;orthogonalLoop=1;jettySize=auto;html=1;entryX=0;entryY=0.5;entryDx=0;entryDy=0;" edge="1" parent="1" source="QjHmccWODFoRW-XNGnVH-54" target="QjHmccWODFoRW-XNGnVH-58">
          <mxGeometry relative="1" as="geometry" />
        </mxCell>
        <mxCell id="QjHmccWODFoRW-XNGnVH-82" style="edgeStyle=orthogonalEdgeStyle;rounded=1;orthogonalLoop=1;jettySize=auto;html=1;" edge="1" parent="1" source="QjHmccWODFoRW-XNGnVH-58" target="QjHmccWODFoRW-XNGnVH-55">
          <mxGeometry relative="1" as="geometry">
            <Array as="points">
              <mxPoint x="470" y="310" />
              <mxPoint x="310" y="310" />
            </Array>
          </mxGeometry>
        </mxCell>
        <mxCell id="QjHmccWODFoRW-XNGnVH-83" style="edgeStyle=orthogonalEdgeStyle;rounded=0;orthogonalLoop=1;jettySize=auto;html=1;entryX=0;entryY=0.5;entryDx=0;entryDy=0;" edge="1" parent="1" source="QjHmccWODFoRW-XNGnVH-55" target="QjHmccWODFoRW-XNGnVH-59">
          <mxGeometry relative="1" as="geometry" />
        </mxCell>
        <mxCell id="QjHmccWODFoRW-XNGnVH-60" style="edgeStyle=orthogonalEdgeStyle;rounded=1;html=1;labelBackgroundColor=none;startArrow=none;startFill=0;startSize=5;endArrow=classicThin;endFill=1;endSize=5;jettySize=auto;orthogonalLoop=1;strokeWidth=1;fontFamily=Verdana;fontSize=8;entryX=0.5;entryY=0;entryDx=0;entryDy=0;exitX=0.5;exitY=1;exitDx=0;exitDy=0;" edge="1" parent="1" source="QjHmccWODFoRW-XNGnVH-59" target="QjHmccWODFoRW-XNGnVH-56">
          <mxGeometry relative="1" as="geometry">
            <Array as="points">
              <mxPoint x="470" y="450" />
              <mxPoint x="310" y="450" />
            </Array>
            <mxPoint x="470" y="430" as="sourcePoint" />
            <mxPoint x="310" y="440" as="targetPoint" />
          </mxGeometry>
        </mxCell>
        <mxCell id="QjHmccWODFoRW-XNGnVH-84" style="edgeStyle=orthogonalEdgeStyle;rounded=1;orthogonalLoop=1;jettySize=auto;html=1;" edge="1" parent="1" source="QjHmccWODFoRW-XNGnVH-56" target="QjHmccWODFoRW-XNGnVH-62">
          <mxGeometry relative="1" as="geometry">
            <Array as="points">
              <mxPoint x="630" y="520" />
            </Array>
          </mxGeometry>
        </mxCell>
        <mxCell id="QjHmccWODFoRW-XNGnVH-85" style="edgeStyle=orthogonalEdgeStyle;rounded=1;orthogonalLoop=1;jettySize=auto;html=1;entryX=0.5;entryY=0;entryDx=0;entryDy=0;" edge="1" parent="1" source="QjHmccWODFoRW-XNGnVH-62" target="QjHmccWODFoRW-XNGnVH-64">
          <mxGeometry relative="1" as="geometry" />
        </mxCell>
        <mxCell id="QjHmccWODFoRW-XNGnVH-87" style="edgeStyle=orthogonalEdgeStyle;rounded=1;orthogonalLoop=1;jettySize=auto;html=1;entryX=0.5;entryY=0;entryDx=0;entryDy=0;" edge="1" parent="1" source="QjHmccWODFoRW-XNGnVH-64" target="QjHmccWODFoRW-XNGnVH-86">
          <mxGeometry relative="1" as="geometry" />
        </mxCell>
        <mxCell id="QjHmccWODFoRW-XNGnVH-90" style="edgeStyle=orthogonalEdgeStyle;rounded=1;orthogonalLoop=1;jettySize=auto;html=1;dashed=1;" edge="1" parent="1" source="QjHmccWODFoRW-XNGnVH-88" target="QjHmccWODFoRW-XNGnVH-56">
          <mxGeometry relative="1" as="geometry">
            <Array as="points">
              <mxPoint x="630" y="450" />
              <mxPoint x="310" y="450" />
            </Array>
          </mxGeometry>
        </mxCell>
      </root>
    </mxGraphModel>
  </diagram>
</mxfile>
